<?xml version="1.0" encoding="UTF-8"?>
<svg version="1.1" xmlns="http://www.w3.org/2000/svg" width="2409" height="2409">
<path d="M0 0 C2.05378745 -0.00702087 4.10757468 -0.0141077 6.16136169 -0.02125549 C12.68700474 -0.04065492 19.21261227 -0.04568928 25.73828125 -0.046875 C26.84935997 -0.04731686 27.96043869 -0.04775871 29.10518646 -0.04821396 C60.913088 -0.05485069 92.60270979 0.01204842 124.30108643 2.94989014 C127.20110028 3.21696873 130.10208094 3.47086709 133.00341797 3.72314453 C225.65424618 11.86701638 316.82428764 30.6875304 620.10253906 154.50830078 C623.20214182 156.29013602 626.3095948 158.05773425 629.41796875 159.82421875 C651.67928697 172.51265448 673.16669596 186.19541113 694.48828125 200.390625 C695.3800708 200.98386566 696.27186035 201.57710632 697.19067383 202.18832397 C712.17975893 212.17040728 727.00467042 222.37226239 741.48828125 233.078125 C742.65750122 233.94111206 742.65750122 233.94111206 743.8503418 234.8215332 C751.66767687 240.61788939 759.35036684 246.58251094 767.00195312 252.59521484 C768.89443601 254.08042603 770.79176838 255.55911459 772.69140625 257.03515625 C786.21947862 267.5669757 799.38117638 278.5373562 812.35351562 289.74414062 C814.06282799 291.21348048 815.78173324 292.67076372 817.50390625 294.125 C824.46416124 300.01549767 831.21710727 306.07884609 837.85375977 312.33227539 C840.99418747 315.2906733 844.14913683 318.20707264 847.42578125 321.015625 C851.00483863 324.09113534 854.29721959 327.41099222 857.58203125 330.796875 C859.47731864 332.64418043 861.37708851 334.34249918 863.390625 336.05078125 C869.58285915 341.42623504 875.30121955 347.30492895 881.0871582 353.10913086 C883.10842393 355.1357548 885.13497699 357.15698047 887.16210938 359.17773438 C898.56668735 370.57704537 898.56668735 370.57704537 903.73608398 376.67016602 C905.56200678 378.79922251 907.53863347 380.75104133 909.55078125 382.703125 C912.90011854 386.01299198 916.05004081 389.41059449 919.11328125 392.984375 C921.03680902 395.18712455 923.01183239 397.336262 925.00097656 399.47973633 C929.83143351 404.68679675 934.41453511 410.01967339 938.87109375 415.5546875 C941.02835524 418.17587619 943.26389125 420.69466781 945.55078125 423.203125 C949.34119625 427.3719291 952.93857546 431.65797498 956.48046875 436.0390625 C958.40258586 438.4159731 960.35043394 440.76988443 962.30859375 443.1171875 C968.57678677 450.64320898 974.68514961 458.23997859 980.51098633 466.11425781 C983.69714578 470.41723171 986.95244707 474.65596476 990.26171875 478.86499023 C996.96613396 487.39280877 1003.33999966 496.09052413 1009.51904297 505.00488281 C1011.07989261 507.24490356 1012.65860517 509.47131436 1014.2421875 511.6953125 C1061.98033311 578.92799359 1102.59004802 651.89920869 1152.05078125 769.203125 C1152.32386108 769.90957153 1152.59694092 770.61601807 1152.8782959 771.34387207 C1186.86312304 859.45549404 1210.36130906 951.55946499 1230.2890625 1122.75390625 C1230.3523172 1123.6022554 1230.4155719 1124.45060455 1230.48074341 1125.32466125 C1231.70364541 1142.59564936 1232.21712705 1159.84138611 1232.25390625 1177.15234375 C1232.26092712 1179.2061312 1232.26801395 1181.25991843 1232.27516174 1183.31370544 C1232.29456117 1189.83934849 1232.29959553 1196.36495602 1232.30078125 1202.890625 C1232.30122311 1204.00170372 1232.30166496 1205.11278244 1232.30212021 1206.25753021 C1232.30875694 1238.06543175 1232.24185783 1269.75505354 1229.30401611 1301.45343018 C1229.03693752 1304.35344403 1228.78303916 1307.25442469 1228.53076172 1310.15576172 C1220.39174291 1402.75137808 1201.53825641 1493.78735478 1118.05078125 1719.203125 C1117.49712891 1720.37069336 1116.94347656 1721.53826172 1116.37304688 1722.74121094 C1104.36290016 1748.05564218 1091.73587287 1773.00938286 1077.72949219 1797.28710938 C1075.95315242 1800.37271179 1074.19267985 1803.46703217 1072.43359375 1806.5625 C1059.7449406 1828.82705616 1046.06009673 1850.31663406 1031.86328125 1871.640625 C1031.27004059 1872.53241455 1030.67679993 1873.4242041 1030.06558228 1874.34301758 C1020.08349897 1889.33210268 1009.88164386 1904.15701417 999.17578125 1918.640625 C998.60045654 1919.42010498 998.02513184 1920.19958496 997.43237305 1921.00268555 C991.63601686 1928.82002062 985.67139531 1936.50271059 979.65869141 1944.15429688 C978.17348022 1946.04677976 976.69479166 1947.94411213 975.21875 1949.84375 C964.68693055 1963.37182237 953.71655005 1976.53352013 942.50976562 1989.50585938 C941.04042577 1991.21517174 939.58314253 1992.93407699 938.12890625 1994.65625 C932.23840858 2001.61650499 926.17506016 2008.36945102 919.92163086 2015.00610352 C916.96323295 2018.14653122 914.04683361 2021.30148058 911.23828125 2024.578125 C908.16277091 2028.15718238 904.84291403 2031.44956334 901.45703125 2034.734375 C899.60972582 2036.62966239 897.91140707 2038.52943226 896.203125 2040.54296875 C890.82767121 2046.7352029 884.9489773 2052.4535633 879.14477539 2058.23950195 C877.11815145 2060.26076768 875.09692578 2062.28732074 873.07617188 2064.31445312 C861.67686088 2075.7190311 861.67686088 2075.7190311 855.58374023 2080.88842773 C853.45468374 2082.71435053 851.50286492 2084.69097722 849.55078125 2086.703125 C846.24091427 2090.05246229 842.84331176 2093.20238456 839.26953125 2096.265625 C837.0667817 2098.18915277 834.91764425 2100.16417614 832.77416992 2102.15332031 C827.5671095 2106.98377726 822.23423286 2111.56687886 816.69921875 2116.0234375 C814.07803006 2118.18069899 811.55923844 2120.416235 809.05078125 2122.703125 C804.88197715 2126.49354 800.59593127 2130.09091921 796.21484375 2133.6328125 C793.83793315 2135.55492961 791.48402182 2137.50277769 789.13671875 2139.4609375 C781.61069727 2145.72913052 774.01392766 2151.83749336 766.13964844 2157.66333008 C761.83667454 2160.84948953 757.59794149 2164.10479082 753.38891602 2167.4140625 C744.86109748 2174.11847771 736.16338212 2180.49234341 727.24902344 2186.67138672 C725.00900269 2188.23223636 722.78259189 2189.81094892 720.55859375 2191.39453125 C653.32591266 2239.13267686 580.35469756 2279.74239177 463.05078125 2329.203125 C462.34433472 2329.47620483 461.63788818 2329.74928467 460.91003418 2330.03063965 C372.79841221 2364.01546679 280.69444126 2387.51365281 109.5 2407.44140625 C108.65165085 2407.50466095 107.8033017 2407.56791565 106.929245 2407.63308716 C89.65825689 2408.85598916 72.41252014 2409.3694708 55.1015625 2409.40625 C53.04777505 2409.41327087 50.99398782 2409.4203577 48.94020081 2409.42750549 C42.41455776 2409.44690492 35.88895023 2409.45193928 29.36328125 2409.453125 C28.25220253 2409.45356686 27.14112381 2409.45400871 25.99637604 2409.45446396 C-5.8115255 2409.46110069 -37.50114729 2409.39420158 -69.19952393 2406.45635986 C-72.09953778 2406.18928127 -75.00051844 2405.93538291 -77.90185547 2405.68310547 C-170.49747183 2397.54408666 -261.53344853 2378.69060016 -486.94921875 2295.203125 C-488.70057129 2294.37264648 -488.70057129 2294.37264648 -490.48730469 2293.52539062 C-515.80173593 2281.51524391 -540.75547661 2268.88821662 -565.03320312 2254.88183594 C-568.11880554 2253.10549617 -571.21312592 2251.3450236 -574.30859375 2249.5859375 C-596.57314991 2236.89728435 -618.06272781 2223.21244048 -639.38671875 2209.015625 C-640.72440308 2208.12576401 -640.72440308 2208.12576401 -642.08911133 2207.21792603 C-657.07819643 2197.23584272 -671.90310792 2187.03398761 -686.38671875 2176.328125 C-687.16619873 2175.75280029 -687.94567871 2175.17747559 -688.7487793 2174.5847168 C-696.56611437 2168.78836061 -704.24880434 2162.82373906 -711.90039062 2156.81103516 C-713.79287351 2155.32582397 -715.69020588 2153.84713541 -717.58984375 2152.37109375 C-731.11791612 2141.8392743 -744.27961388 2130.8688938 -757.25195312 2119.66210938 C-758.96126549 2118.19276952 -760.68017074 2116.73548628 -762.40234375 2115.28125 C-769.9612999 2108.88439455 -777.25778771 2102.25904896 -784.46484375 2095.46875 C-787.41927517 2092.68791956 -790.41965419 2089.9646916 -793.44921875 2087.265625 C-796.80896053 2084.26625156 -800.01480308 2081.16934595 -803.16625977 2077.95361328 C-804.79582364 2076.35372653 -806.46973035 2074.89219628 -808.21875 2073.42578125 C-814.43040231 2068.02161521 -820.1759247 2062.1251283 -825.9855957 2056.29711914 C-828.00686143 2054.2704952 -830.03341449 2052.24926953 -832.06054688 2050.22851562 C-843.46512485 2038.82920463 -843.46512485 2038.82920463 -848.63452148 2032.73608398 C-850.46044428 2030.60702749 -852.43707097 2028.65520867 -854.44921875 2026.703125 C-857.79855604 2023.39325802 -860.94847831 2019.99565551 -864.01171875 2016.421875 C-865.93524652 2014.21912545 -867.91026989 2012.069988 -869.89941406 2009.92651367 C-874.72987101 2004.71945325 -879.31297261 1999.38657661 -883.76953125 1993.8515625 C-885.92679274 1991.23037381 -888.16232875 1988.71158219 -890.44921875 1986.203125 C-894.23963375 1982.0343209 -897.83701296 1977.74827502 -901.37890625 1973.3671875 C-903.30102336 1970.9902769 -905.24887144 1968.63636557 -907.20703125 1966.2890625 C-913.47522427 1958.76304102 -919.58358711 1951.16627141 -925.40942383 1943.29199219 C-928.59558328 1938.98901829 -931.85088457 1934.75028524 -935.16015625 1930.54125977 C-941.86457146 1922.01344123 -948.23843716 1913.31572587 -954.41748047 1904.40136719 C-955.97833011 1902.16134644 -957.55704267 1899.93493564 -959.140625 1897.7109375 C-1006.87877061 1830.47825641 -1047.48848552 1757.50704131 -1096.94921875 1640.203125 C-1097.22229858 1639.49667847 -1097.49537842 1638.79023193 -1097.7767334 1638.06237793 C-1131.76156054 1549.95075596 -1155.25974656 1457.84678501 -1175.1875 1286.65234375 C-1175.2507547 1285.8039946 -1175.3140094 1284.95564545 -1175.37918091 1284.08158875 C-1176.60208291 1266.81060064 -1177.11556455 1249.56486389 -1177.15234375 1232.25390625 C-1177.15936462 1230.2001188 -1177.16645145 1228.14633157 -1177.17359924 1226.09254456 C-1177.19299867 1219.56690151 -1177.19803303 1213.04129398 -1177.19921875 1206.515625 C-1177.19966061 1205.40454628 -1177.20010246 1204.29346756 -1177.20055771 1203.14871979 C-1177.20719444 1171.34081825 -1177.14029533 1139.65119646 -1174.20245361 1107.95281982 C-1173.93537502 1105.05280597 -1173.68147666 1102.15182531 -1173.42919922 1099.25048828 C-1165.29018041 1006.65487192 -1146.43669391 915.61889522 -1062.94921875 690.203125 C-1062.39556641 689.03555664 -1061.84191406 687.86798828 -1061.27148438 686.66503906 C-1049.26133766 661.35060782 -1036.63431037 636.39686714 -1022.62792969 612.11914062 C-1020.85158992 609.03353821 -1019.09111735 605.93921783 -1017.33203125 602.84375 C-1004.6433781 580.57919384 -990.95853423 559.08961594 -976.76171875 537.765625 C-976.16847809 536.87383545 -975.57523743 535.9820459 -974.96401978 535.06323242 C-964.98193647 520.07414732 -954.78008136 505.24923583 -944.07421875 490.765625 C-943.21123169 489.59640503 -943.21123169 489.59640503 -942.33081055 488.40356445 C-936.53445436 480.58622938 -930.56983281 472.90353941 -924.55712891 465.25195312 C-923.07191772 463.35947024 -921.59322916 461.46213787 -920.1171875 459.5625 C-909.58536805 446.03442763 -898.61498755 432.87272987 -887.40820312 419.90039062 C-885.93886327 418.19107826 -884.48158003 416.47217301 -883.02734375 414.75 C-877.13684608 407.78974501 -871.07349766 401.03679898 -864.82006836 394.40014648 C-861.86167045 391.25971878 -858.94527111 388.10476942 -856.13671875 384.828125 C-853.06120841 381.24906762 -849.74135153 377.95668666 -846.35546875 374.671875 C-844.50816332 372.77658761 -842.80984457 370.87681774 -841.1015625 368.86328125 C-835.72610871 362.6710471 -829.8474148 356.9526867 -824.04321289 351.16674805 C-822.01658895 349.14548232 -819.99536328 347.11892926 -817.97460938 345.09179688 C-806.57529838 333.6872189 -806.57529838 333.6872189 -800.48217773 328.51782227 C-798.35312124 326.69189947 -796.40130242 324.71527278 -794.44921875 322.703125 C-791.13935177 319.35378771 -787.74174926 316.20386544 -784.16796875 313.140625 C-781.9652192 311.21709723 -779.81608175 309.24207386 -777.67260742 307.25292969 C-772.465547 302.42247274 -767.13267036 297.83937114 -761.59765625 293.3828125 C-758.97646756 291.22555101 -756.45767594 288.990015 -753.94921875 286.703125 C-749.78041465 282.91271 -745.49436877 279.31533079 -741.11328125 275.7734375 C-738.73637065 273.85132039 -736.38245932 271.90347231 -734.03515625 269.9453125 C-726.50913477 263.67711948 -718.91236516 257.56875664 -711.03808594 251.74291992 C-706.73511204 248.55676047 -702.49637899 245.30145918 -698.28735352 241.9921875 C-689.75953498 235.28777229 -681.06181962 228.91390659 -672.14746094 222.73486328 C-669.90744019 221.17401364 -667.68102939 219.59530108 -665.45703125 218.01171875 C-598.22435016 170.27357314 -525.25313506 129.66385823 -407.94921875 80.203125 C-407.24277222 79.93004517 -406.53632568 79.65696533 -405.80847168 79.37561035 C-317.69684971 45.39078321 -225.59287876 21.89259719 -54.3984375 1.96484375 C-53.55008835 1.90158905 -52.7017392 1.83833435 -51.8276825 1.77316284 C-34.55669439 0.55026084 -17.31095764 0.0367792 0 0 Z " fill="#404041" transform="translate(1176.94921875,-0.203125)"/>
<path d="M0 0 C14.41494894 9.26345277 23.71686145 23.56230264 29.109375 39.55957031 C30.49795614 44.1733188 31.48078515 48.85049956 32.4375 53.56640625 C32.80077531 55.24609503 33.16405686 56.92578247 33.52734375 58.60546875 C33.89591703 60.38355954 34.2618307 62.16220385 34.625 63.94140625 C34.79225586 64.72999023 34.95951172 65.51857422 35.13183594 66.33105469 C49.11276119 138.54181296 32.90447044 221.49770405 21.78088379 293.34182739 C21.49184795 295.21431827 21.20687847 297.08743617 20.92285156 298.96069336 C15.98255249 331.54148347 10.28128582 363.99644439 4.1875 396.37890625 C4.06174843 397.04799137 3.93599686 397.71707649 3.80643463 398.40643692 C-0.62243689 421.96584366 -5.22649529 445.48797237 -10.1875 468.94140625 C-10.34935791 469.70812653 -10.51121582 470.4748468 -10.67797852 471.26480103 C-20.121755 515.98356193 -29.84621187 560.6073259 -40.69580078 605.00683594 C-41.87651242 609.85606854 -43.0357527 614.71022511 -44.1875 619.56640625 C-44.38126221 620.38214111 -44.57502441 621.19787598 -44.7746582 622.03833008 C-45.16560547 623.68422624 -45.55647416 625.33014106 -45.94726562 626.97607422 C-50.64805964 646.76790934 -55.52024258 666.51262571 -60.48730469 686.23925781 C-62.35721658 693.68702124 -64.19423808 701.14188354 -66 708.60546875 C-66.31389175 709.90136177 -66.31389175 709.90136177 -66.63412476 711.22343445 C-67.4936553 714.77260344 -68.35309416 718.32178592 -69.20800781 721.87207031 C-71.50727736 731.41456231 -73.88212455 740.89928232 -76.63769531 750.32128906 C-78.22343222 755.88560135 -79.56743948 761.5083904 -80.9375 767.12890625 C-83.25152006 776.5147213 -85.71595277 785.82947721 -88.4309082 795.10668945 C-90.13914804 800.97829925 -91.67400827 806.87628425 -93.125 812.81640625 C-94.77746014 819.57754222 -96.60136747 826.25231863 -98.61523438 832.9140625 C-100.4403841 839.00926658 -102.04173393 845.15446565 -103.625 851.31640625 C-105.40666631 858.2371082 -107.27562194 865.09045784 -109.44140625 871.90234375 C-111.03125383 877.09843096 -112.48002463 882.3318723 -113.9375 887.56640625 C-117.79111517 901.39738512 -121.70491093 915.20904164 -125.7265625 928.9921875 C-126.30840516 930.98734785 -126.89015629 932.98253484 -127.47180176 934.97775269 C-127.86544752 936.3279967 -128.25924624 937.67819613 -128.65319824 939.02835083 C-130.79576384 946.37710173 -132.91190297 953.72990755 -134.88134766 961.12744141 C-135.14737793 962.1179248 -135.4134082 963.1084082 -135.6875 964.12890625 C-135.99397461 965.27336716 -135.99397461 965.27336716 -136.30664062 966.44094849 C-137.95760792 972.53143994 -139.78786475 978.54118776 -141.734375 984.54296875 C-145.509547 996.30011186 -149.09476473 1008.11160652 -152.65185547 1019.9362793 C-153.69192051 1023.39360064 -154.7344268 1026.85017861 -155.77734375 1030.30664062 C-159.62548337 1043.0445078 -159.62548337 1043.0445078 -163.37400818 1055.81187439 C-167.28066239 1069.3129023 -171.63027696 1082.68183462 -175.90707779 1096.06905746 C-176.63344568 1098.34284419 -177.35928061 1100.61680056 -178.08505249 1102.89077759 C-202.72414633 1180.06772752 -228.58732836 1256.75015747 -256.76553345 1332.71502686 C-257.40152211 1334.42959548 -258.03582 1336.14479236 -258.66830444 1337.86065674 C-260.3460621 1342.38984417 -262.08367956 1346.88648383 -263.89697266 1351.36328125 C-264.2776741 1352.31750977 -264.65837555 1353.27173828 -265.0506134 1354.25488281 C-265.78324742 1356.08555876 -266.52957546 1357.91083271 -267.29154968 1359.72949219 C-269.26712557 1364.46521655 -269.26712557 1364.46521655 -268.88305664 1369.43896484 C-268.44727295 1370.14102051 -268.01148926 1370.84307617 -267.5625 1371.56640625 C-266.98757813 1372.73429687 -266.41265625 1373.9021875 -265.8203125 1375.10546875 C-257.15303411 1391.8732393 -247.01980312 1407.57774258 -235.5625 1422.56640625 C-235.11551758 1423.15760254 -234.66853516 1423.74879883 -234.20800781 1424.35791016 C-219.47899773 1443.80041555 -202.1095267 1462.9383283 -182.5625 1477.56640625 C-181.90910645 1478.06914063 -181.25571289 1478.571875 -180.58251953 1479.08984375 C-168.7601402 1488.18519075 -156.57585913 1496.27757536 -143.5625 1503.56640625 C-142.21696045 1504.32050781 -142.21696045 1504.32050781 -140.84423828 1505.08984375 C-115.38778757 1519.194033 -88.36460002 1529.24599353 -60.09228516 1535.95654297 C-57.28473297 1536.63336842 -54.48663938 1537.34390296 -51.6875 1538.0546875 C-20.33654238 1545.90114796 11.26165466 1548.79113286 43.5 1548.81640625 C45.02844543 1548.81841537 45.02844543 1548.81841537 46.58776855 1548.82046509 C66.27037583 1548.81491368 85.74198842 1547.7112771 105.32299805 1545.77532959 C107.37708302 1545.57237575 109.4316184 1545.37473772 111.48632812 1545.17822266 C115.13852993 1544.82312169 118.78833556 1544.45138843 122.4375 1544.06640625 C123.45038086 1543.96030029 124.46326172 1543.85419434 125.50683594 1543.74487305 C132.27926618 1542.97138072 138.90298575 1541.73869278 145.57714844 1540.36035156 C149.36042339 1539.58225833 153.14962299 1538.85156207 156.9453125 1538.13671875 C177.90082902 1534.17028923 198.50722057 1529.72029887 218.88452148 1523.35913086 C220.72551517 1522.78748445 222.56911887 1522.22421985 224.41430664 1521.66625977 C264.78396125 1509.42383318 304.32203951 1493.18080876 339.4375 1469.56640625 C340.08783203 1469.13231445 340.73816406 1468.69822266 341.40820312 1468.25097656 C349.14914847 1463.04364983 356.09836947 1457.38983998 362.81640625 1450.9140625 C365.24498224 1448.73884019 367.58682079 1447.12835164 370.4375 1445.56640625 C353.69926786 1481.35434068 306.17178137 1507.77077252 273.4375 1525.56640625 C272.10332031 1526.30020508 272.10332031 1526.30020508 270.7421875 1527.04882812 C248.42537672 1539.27220953 225.03736629 1548.88251059 201.14941406 1557.57128906 C198.57804162 1558.51483552 196.01825663 1559.48394018 193.4609375 1560.46484375 C177.69740839 1566.47908708 161.59907547 1570.96328888 145.15625 1574.69921875 C142.01127054 1575.43260682 138.91693272 1576.24322986 135.8125 1577.12890625 C129.80271865 1578.80228848 123.71661141 1579.98271936 117.59082031 1581.1484375 C115.35601953 1581.58222196 113.12745419 1582.04136883 110.8984375 1582.50390625 C90.83689421 1586.59283186 70.22613082 1589.63144642 49.75 1590.390625 C46.47964677 1590.50114508 46.47964677 1590.50114508 43.45727539 1591.0690918 C38.26216746 1591.82884106 33.04805832 1591.70921854 27.80859375 1591.69921875 C26.70073013 1591.70017548 25.59286652 1591.7011322 24.45143127 1591.70211792 C22.11744123 1591.70279626 19.78344927 1591.70096618 17.44946289 1591.69677734 C13.88358313 1591.69141915 10.31782902 1591.69673674 6.75195312 1591.703125 C4.47916639 1591.70246426 2.20637973 1591.70118317 -0.06640625 1591.69921875 C-1.66035973 1591.7022551 -1.66035973 1591.7022551 -3.28651428 1591.70535278 C-8.17028373 1591.68992768 -12.75595578 1591.53098009 -17.5625 1590.56640625 C-20.23070691 1590.41631961 -22.89269352 1590.29390775 -25.5625 1590.19140625 C-32.9518594 1589.84815053 -40.23452707 1589.07015582 -47.5625 1588.06640625 C-48.52414062 1587.93572754 -49.48578125 1587.80504883 -50.4765625 1587.67041016 C-57.29142552 1586.70194349 -57.29142552 1586.70194349 -59.5625 1585.56640625 C-61.60840918 1585.2733695 -63.65887446 1585.01190169 -65.7109375 1584.765625 C-73.73712757 1583.65570705 -81.41744914 1581.63582737 -89.1875 1579.37890625 C-89.88626251 1579.17843689 -90.58502502 1578.97796753 -91.30496216 1578.77142334 C-141.43998792 1564.37823113 -189.53089132 1540.4428739 -228.0859375 1504.83203125 C-230.11654134 1502.97438105 -232.17652674 1501.17399136 -234.26171875 1499.37890625 C-239.03169954 1495.21435466 -243.52594262 1490.7949489 -248 1486.31640625 C-248.84038818 1485.4752124 -249.68077637 1484.63401855 -250.54663086 1483.76733398 C-256.30174913 1477.95507349 -261.54311908 1472.02420696 -266.5625 1465.56640625 C-268.14238537 1463.70930079 -269.7259403 1461.85531296 -271.3125 1460.00390625 C-277.84223162 1452.1948385 -283.7255986 1443.90072922 -289.5625 1435.56640625 C-289.98176758 1434.97182617 -290.40103516 1434.37724609 -290.83300781 1433.76464844 C-293.5625 1429.80820278 -293.5625 1429.80820278 -293.5625 1427.56640625 C-294.2225 1427.56640625 -294.8825 1427.56640625 -295.5625 1427.56640625 C-295.67916016 1428.2713623 -295.79582031 1428.97631836 -295.91601562 1429.70263672 C-297.17781303 1435.29209425 -299.77736432 1440.45485443 -302.0625 1445.69140625 C-302.48633469 1446.66697983 -302.48633469 1446.66697983 -302.91873169 1447.66226196 C-319.63172065 1486.03367737 -337.57479204 1526.55650771 -363.5625 1559.56640625 C-364.0147998 1560.14503418 -364.46709961 1560.72366211 -364.93310547 1561.31982422 C-375.22564548 1574.35996455 -387.62972726 1586.06472568 -404.3671875 1589.734375 C-425.69153907 1593.59195563 -445.02200138 1589.09411795 -463.5625 1578.56640625 C-464.54863281 1578.02113281 -465.53476563 1577.47585938 -466.55078125 1576.9140625 C-490.47429495 1562.75383514 -507.12553028 1537.76255637 -519.5625 1513.56640625 C-520.03155762 1512.65955078 -520.50061523 1511.75269531 -520.98388672 1510.81835938 C-529.12482118 1494.91763542 -535.51521631 1478.67453686 -541.40600586 1461.8425293 C-542.46942968 1458.83005637 -543.57478575 1455.83679967 -544.69140625 1452.84375 C-546.5916185 1447.63413649 -548.09127681 1442.36454293 -549.5 1437.00390625 C-550.02025838 1435.05453396 -550.54109872 1433.10531691 -551.0625 1431.15625 C-551.31644531 1430.20347168 -551.57039062 1429.25069336 -551.83203125 1428.26904297 C-552.47116903 1425.90431863 -553.13218143 1423.54844665 -553.8125 1421.1953125 C-559.30560126 1402.16620241 -564.04323233 1382.75026375 -567.01171875 1363.16015625 C-567.60889982 1359.26365562 -568.35516304 1355.41716258 -569.15625 1351.55859375 C-569.69718079 1348.90595237 -570.14031737 1346.24022955 -570.5625 1343.56640625 C-574.47419499 1348.05009437 -577.18737632 1353.01947216 -580.0625 1358.19140625 C-588.92270132 1373.87347695 -598.72082466 1388.88556592 -608.6875 1403.87890625 C-609.31072144 1404.81789261 -609.31072144 1404.81789261 -609.9465332 1405.77584839 C-615.97023497 1414.84072179 -622.18507756 1423.74709876 -628.5625 1432.56640625 C-629.18608398 1433.43144775 -629.80966797 1434.29648926 -630.45214844 1435.18774414 C-638.03721514 1445.67356269 -645.88864582 1455.880212 -654.14306641 1465.84716797 C-656.13470029 1468.25946343 -658.09568419 1470.69635992 -660.0625 1473.12890625 C-671.09451717 1486.58111 -682.57114034 1499.8071104 -695.01171875 1511.98046875 C-696.66449094 1513.67070933 -698.16844478 1515.44286718 -699.6875 1517.25390625 C-703.90628482 1522.15991393 -708.71224157 1526.40169076 -713.4921875 1530.74609375 C-715.80011074 1532.84862153 -718.02142799 1535.00412132 -720.1875 1537.25390625 C-723.70627659 1540.84236158 -727.59516481 1543.93531011 -731.5234375 1547.0625 C-734.02496455 1549.12352679 -736.43090903 1551.23585846 -738.8359375 1553.40625 C-743.3237348 1557.41391178 -747.98906523 1561.0980765 -752.8125 1564.69140625 C-753.67238525 1565.33247314 -754.53227051 1565.97354004 -755.41821289 1566.6340332 C-797.23166994 1597.5234926 -846.77551912 1624.35358075 -900.0559082 1623.95751953 C-902.62700222 1623.94139369 -905.19653026 1623.95749779 -907.76757812 1623.9765625 C-918.39642591 1623.98984427 -928.19201339 1622.93138032 -938.5625 1620.56640625 C-939.38242432 1620.39334961 -940.20234863 1620.22029297 -941.04711914 1620.04199219 C-968.09541329 1614.23586533 -993.24754883 1601.02871537 -1014.5625 1583.56640625 C-1015.37122559 1582.91212646 -1015.37122559 1582.91212646 -1016.19628906 1582.24462891 C-1030.62952012 1570.5064525 -1044.22785065 1557.3328266 -1055.5625 1542.56640625 C-1056.64633898 1541.21966262 -1057.73247985 1539.87476981 -1058.8203125 1538.53125 C-1066.98998377 1528.35881409 -1074.08647962 1517.88619309 -1080.5625 1506.56640625 C-1080.92537109 1505.94765625 -1081.28824219 1505.32890625 -1081.66210938 1504.69140625 C-1105.98942509 1463.06568029 -1112.28787297 1412.85293778 -1105.83154297 1365.57910156 C-1105.57497034 1363.65969613 -1105.36631395 1361.73406661 -1105.16015625 1359.80859375 C-1096.07997163 1279.7300132 -1048.06840434 1201.71796771 -1000.5625 1138.56640625 C-999.93150391 1137.72722656 -999.30050781 1136.88804688 -998.65039062 1136.0234375 C-985.41150486 1118.46449427 -971.89992589 1101.15570105 -957.6484375 1084.40429688 C-954.73662087 1080.9759988 -951.88486523 1077.5066631 -949.0625 1074.00390625 C-944.93559794 1068.93033132 -940.56147442 1064.12899483 -936.1171875 1059.3359375 C-934.06136278 1057.10722232 -932.04633043 1054.85872706 -930.0625 1052.56640625 C-925.82840986 1047.68865396 -921.44432522 1042.94884144 -917.06689453 1038.20019531 C-915.51978448 1036.52001673 -913.97645575 1034.83642334 -912.43359375 1033.15234375 C-907.79417175 1028.09654483 -903.14506909 1023.07607813 -898.239151 1018.27549744 C-896.57205036 1016.57614139 -895.03230224 1014.81507676 -893.48999023 1013.00219727 C-889.06047195 1007.91407124 -884.30895981 1003.16933113 -879.53515625 998.40625 C-878.57768975 997.44810765 -877.62037155 996.48981709 -876.66319275 995.53138733 C-874.66876253 993.53549338 -872.67256259 991.54139173 -870.67504883 989.54858398 C-868.13575601 987.01498762 -865.60098097 984.47692642 -863.06752872 981.93749142 C-861.09517816 979.96149922 -859.12041737 977.98792946 -857.14495659 976.01504707 C-855.76123372 974.63230026 -854.37949686 973.24756695 -852.99781799 971.86277771 C-848.55279676 967.43409223 -844.06014713 963.13426889 -839.28184509 959.06556702 C-836.39422976 956.54774809 -833.73653008 953.80712037 -831.0625 951.06640625 C-827.07397194 946.97841365 -822.96833272 943.13105764 -818.64648438 939.39648438 C-815.02688338 936.21788444 -811.55305292 932.88529263 -808.0625 929.56640625 C-803.26043054 925.00050414 -798.41330946 920.51995296 -793.40673828 916.17871094 C-790.80316906 913.90256967 -788.28054879 911.54853282 -785.75 909.19140625 C-781.97508873 905.69873134 -778.13691715 902.35130618 -774.125 899.12890625 C-769.94009905 895.76292117 -765.97960021 892.23440903 -762.0625 888.56640625 C-757.35843543 884.16594076 -752.53229559 880.01226248 -747.5078125 875.9765625 C-743.96332482 873.07609977 -740.5127382 870.07779836 -737.0625 867.06640625 C-731.87994492 862.54823135 -726.63774716 858.12713069 -721.29296875 853.80078125 C-718.79681128 851.75814595 -716.33645108 849.68141552 -713.8840332 847.58691406 C-708.3571244 842.86678695 -702.73945482 838.2974778 -697.00463867 833.83251953 C-692.47585533 830.30147696 -688.01066784 826.6983377 -683.5625 823.06640625 C-676.91471057 817.64536319 -670.20881866 812.30698696 -663.44335938 807.03369141 C-661.42334381 805.45784853 -659.40698 803.87739846 -657.390625 802.296875 C-648.56290509 795.39039596 -639.65602196 788.6004198 -630.67553711 781.89379883 C-626.08775062 778.46649192 -621.52556222 775.0129399 -617 771.50390625 C-604.90067627 762.15864853 -592.49590549 753.21337616 -580.09155273 744.27929688 C-572.88283943 739.08562076 -565.71813871 733.83287191 -558.5625 728.56640625 C-557.9025 728.89640625 -557.2425 729.22640625 -556.5625 729.56640625 C-562.25886023 734.2924446 -567.99628022 738.94406908 -573.875 743.44140625 C-584.24542523 751.37707617 -594.47924721 759.46634584 -604.59423828 767.7253418 C-608.93944742 771.26718639 -613.32680913 774.74764064 -617.75 778.19140625 C-623.45130411 782.6367639 -628.9827948 787.2556121 -634.48046875 791.94921875 C-637.30933013 794.36137149 -640.17825122 796.72060623 -643.0625 799.06640625 C-647.66498466 802.8126147 -652.19972411 806.63163412 -656.7199707 810.47607422 C-660.19493023 813.42599529 -663.70703073 816.32305031 -667.25 819.19140625 C-671.64764096 822.76806938 -675.85518157 826.50965448 -680.04296875 830.328125 C-682.59454917 832.59487783 -685.21421532 834.74180712 -687.875 836.87890625 C-693.32626101 841.28778733 -698.43963498 846.00164605 -703.5625 850.78125 C-706.52126022 853.53986964 -709.54645085 856.21251951 -712.60546875 858.859375 C-714.9480915 860.90274056 -717.25523422 862.98321484 -719.5625 865.06640625 C-722.47738929 867.6982107 -725.40523211 870.30927551 -728.375 872.87890625 C-733.65716094 877.48086941 -738.76589232 882.27236216 -743.90429688 887.03320312 C-746.4491527 889.38622059 -749.00559604 891.72649795 -751.5625 894.06640625 C-757.31860982 899.33977599 -763.07099521 904.61685685 -768.79345703 909.92675781 C-769.98031975 911.02680888 -771.1688191 912.12509658 -772.35888672 913.22167969 C-783.58001605 923.57192421 -794.38752093 934.31152321 -805.12158203 945.16235352 C-810.25332382 950.33881355 -815.35113003 955.4629149 -820.95605469 960.13598633 C-823.22829925 962.1592509 -825.13513961 964.42979671 -827.04296875 966.79296875 C-829.09028272 969.18237888 -831.33019089 971.34891911 -833.5625 973.56640625 C-834.37960449 974.37827393 -835.19670898 975.1901416 -836.03857422 976.02661133 C-836.8895166 976.87118896 -837.74045898 977.7157666 -838.6171875 978.5859375 C-840.06338274 980.02475083 -841.50909145 981.46405106 -842.95458984 982.90356445 C-843.938712 983.88266392 -844.92373062 984.8608632 -845.90966797 985.83813477 C-851.14614333 991.02999598 -856.31279452 996.23554575 -861.08056641 1001.86791992 C-862.6668052 1003.68595342 -864.34000705 1005.37762354 -866.0625 1007.06640625 C-869.03697745 1009.99492047 -871.77649975 1013.0614506 -874.5 1016.22265625 C-877.02909679 1019.09662988 -879.63984615 1021.89141545 -882.25 1024.69140625 C-887.05836823 1029.86237025 -891.69555641 1035.15676754 -896.265625 1040.53881836 C-899.20523006 1043.9972057 -902.19207132 1047.39867895 -905.25 1050.75390625 C-909.02736445 1054.91713051 -912.58677268 1059.22348516 -916.12109375 1063.59375 C-918.8396995 1066.90392436 -921.63345217 1070.14126124 -924.4375 1073.37890625 C-929.90600163 1079.71432316 -935.10091847 1086.23225751 -940.22558594 1092.84716797 C-941.51981916 1094.51151975 -942.82391966 1096.16747337 -944.1328125 1097.8203125 C-956.73383358 1113.73626936 -969.0295224 1129.85730032 -980.5625 1146.56640625 C-981.07876953 1147.31067871 -981.59503906 1148.05495117 -982.12695312 1148.82177734 C-1030.08215482 1218.00138028 -1080.2766297 1301.96654741 -1079.82324219 1388.99951172 C-1079.81254041 1391.43222132 -1079.82319835 1393.86418782 -1079.8359375 1396.296875 C-1079.87860601 1440.77654716 -1064.63711944 1482.78080707 -1036.14819336 1516.97900391 C-1034.43383865 1519.00198437 -1032.69987866 1521.00714189 -1030.9453125 1522.99536133 C-1029.94898154 1524.12731573 -1028.96030872 1525.26602718 -1027.9765625 1526.40893555 C-1004.78721657 1553.25958339 -974.9712624 1577.63631884 -939.5625 1585.56640625 C-938.81871094 1585.7454248 -938.07492187 1585.92444336 -937.30859375 1586.10888672 C-917.43574759 1590.83387121 -897.46851455 1591.31475741 -877.5625 1586.56640625 C-876.81726074 1586.3947998 -876.07202148 1586.22319336 -875.30419922 1586.04638672 C-857.09415512 1581.79319545 -840.03093544 1575.39986911 -823.5625 1566.56640625 C-822.8420752 1566.18613281 -822.12165039 1565.80585937 -821.37939453 1565.4140625 C-805.35184784 1556.92909528 -790.74658007 1546.83293298 -776.5625 1535.56640625 C-775.14517578 1534.44105469 -775.14517578 1534.44105469 -773.69921875 1533.29296875 C-768.07323647 1528.75716974 -762.6713269 1524.02463825 -757.36328125 1519.12109375 C-755.88307022 1517.77094311 -754.39769805 1516.42553908 -752.87475586 1515.1237793 C-747.00102924 1510.10270265 -741.53879591 1504.69496095 -736.08959961 1499.22387695 C-734.50290054 1497.63181659 -732.91092258 1496.04517635 -731.31835938 1494.45898438 C-725.85546277 1488.99965655 -720.57332071 1483.4474681 -715.5625 1477.56640625 C-714.10804483 1475.95872252 -712.65029105 1474.3540091 -711.1875 1472.75390625 C-706.45688148 1467.5047545 -701.98982453 1462.07218162 -697.5625 1456.56640625 C-696.62513065 1455.41005033 -695.6876243 1454.25380545 -694.75 1453.09765625 C-687.99628726 1444.74279989 -681.44827246 1436.25193125 -675.0703125 1427.60693359 C-674.08709689 1426.27634485 -673.10028145 1424.94840638 -672.109375 1423.62353516 C-655.17913144 1400.97592104 -639.92101369 1376.90821726 -625.5625 1352.56640625 C-624.65491943 1351.03306641 -624.65491943 1351.03306641 -623.72900391 1349.46875 C-614.46609051 1333.77067488 -605.79386573 1317.82787469 -597.5625 1301.56640625 C-597.16450195 1300.78023926 -596.76650391 1299.99407227 -596.35644531 1299.18408203 C-594.69237022 1295.88773417 -593.04388326 1292.58485545 -591.41796875 1289.26953125 C-590.10935567 1286.61684133 -588.72622223 1284.01749211 -587.30078125 1281.42578125 C-582.24973118 1272.11721594 -580.60855743 1265.7858732 -582.00390625 1255.22583008 C-591.24118516 1185.12342947 -592.35482748 1106.26550719 -579.5625 1036.56640625 C-579.40668457 1035.70966309 -579.25086914 1034.85291992 -579.09033203 1033.97021484 C-575.28556826 1013.73048206 -569.3781385 991.78762266 -553.5625 977.56640625 C-544.35999452 970.96967729 -536.88061761 968.71653568 -525.5625 969.56640625 C-515.4413537 971.45125196 -506.04094512 977.69566372 -499.5625 985.56640625 C-490.38453426 997.62056547 -484.23540223 1009.7683364 -480.5625 1024.56640625 C-480.34722656 1025.41460938 -480.13195313 1026.2628125 -479.91015625 1027.13671875 C-478.01920368 1035.05939593 -477.40694973 1042.99775091 -477.39453125 1051.125 C-477.39120285 1051.91302505 -477.38787445 1052.70105011 -477.38444519 1053.51295471 C-477.37941794 1055.17261174 -477.37703555 1056.83227873 -477.37719727 1058.49194336 C-477.37503244 1060.96681499 -477.35689142 1063.44122378 -477.33789062 1065.91601562 C-477.192391 1106.10421533 -487.50037801 1145.95289526 -500.29052734 1183.7890625 C-501.50162588 1187.38562998 -502.6849852 1190.99023417 -503.86328125 1194.59765625 C-509.83227196 1212.62595445 -516.92126275 1230.13913387 -524.21875 1247.6640625 C-524.52666473 1248.40439224 -524.83457947 1249.14472198 -525.15182495 1249.90748596 C-527.40396397 1255.28268288 -527.40396397 1255.28268288 -528.75561523 1257.70166016 C-532.56747175 1266.5110278 -528.85852406 1279.5033188 -527.5 1288.75390625 C-527.27653314 1290.31305846 -527.05314658 1291.87222218 -526.82983398 1293.43139648 C-522.88684853 1320.67005247 -518.62218303 1347.86574218 -512.24462891 1374.65234375 C-511.57245208 1377.52389083 -510.94140078 1380.40133224 -510.32421875 1383.28515625 C-507.45228565 1396.62631451 -503.74974956 1409.58179798 -499.5625 1422.56640625 C-499.14761144 1423.86403911 -498.73290647 1425.16173067 -498.31835938 1426.45947266 C-492.85733751 1443.51189342 -487.21566532 1460.34552414 -479.5625 1476.56640625 C-479.21590332 1477.30117187 -478.86930664 1478.0359375 -478.51220703 1478.79296875 C-468.22607439 1500.36051038 -455.75769985 1523.23950542 -433.9921875 1534.94921875 C-428.36793468 1537.47043553 -422.70197896 1538.71175443 -416.5625 1537.56640625 C-402.2092669 1530.51031303 -392.95650324 1508.23806323 -385.5625 1494.56640625 C-385.12067383 1493.75123535 -384.67884766 1492.93606445 -384.22363281 1492.09619141 C-365.26263254 1456.91212236 -349.70708187 1419.96991453 -335.0625 1382.81640625 C-334.64579544 1381.76034683 -334.64579544 1381.76034683 -334.22067261 1380.68295288 C-329.80839982 1371.77363134 -329.80839982 1371.77363134 -329.1640625 1362.48608398 C-329.50179687 1361.74817627 -329.83953125 1361.01026855 -330.1875 1360.25 C-330.56092529 1359.41299561 -330.93435059 1358.57599121 -331.3190918 1357.71362305 C-331.93457886 1356.37231323 -331.93457886 1356.37231323 -332.5625 1355.00390625 C-336.69003072 1345.71233845 -340.32943585 1336.33869389 -343.75830078 1326.77148438 C-344.53002786 1324.6554434 -345.33291782 1322.55500487 -346.15234375 1320.45703125 C-349.71241347 1311.31970584 -352.49168397 1302.11315974 -355.00537109 1292.63720703 C-355.79420192 1289.70518991 -356.64784498 1286.79306603 -357.5 1283.87890625 C-374.36732974 1224.67390145 -382.38747788 1163.86180225 -386.3609314 1102.56427002 C-386.58557553 1099.22321144 -386.83180293 1095.884016 -387.07739258 1092.54443359 C-388.59127885 1071.25386291 -388.99972258 1050.03148109 -389 1028.69140625 C-389.00105869 1027.80322834 -389.00211739 1026.91505043 -389.00320816 1025.99995804 C-389.0354949 997.10284287 -388.09571538 968.34113085 -386.25 939.50390625 C-386.16967089 938.24455135 -386.16967089 938.24455135 -386.08771896 936.95975494 C-385.32989591 925.15552656 -384.48273104 913.35904723 -383.5625 901.56640625 C-383.47456114 900.43726114 -383.47456114 900.43726114 -383.38484573 899.28530502 C-381.84908645 879.66363947 -379.97763909 860.1101704 -377.56518555 840.57397461 C-377.12083827 836.97015304 -376.68774208 833.36510012 -376.25585938 829.75976562 C-374.72652458 817.13189076 -373.00251771 804.55418805 -371.01550293 791.99015808 C-369.9059368 784.93925627 -368.92612923 777.88243239 -368.03515625 770.80078125 C-366.6343899 759.75546473 -364.88721436 748.7881305 -363 737.81640625 C-362.83253265 736.83592316 -362.66506531 735.85544006 -362.49252319 734.84524536 C-359.66855099 718.35633877 -356.59009723 701.92073635 -353.375 685.50390625 C-353.17107635 684.45924194 -352.96715271 683.41457764 -352.75704956 682.33825684 C-350.13009886 668.92348785 -347.26984373 655.57931581 -344.18392944 642.26293945 C-343.5689641 639.59445556 -342.96473089 636.9237874 -342.36450195 634.25195312 C-339.07830091 619.63324453 -335.58619782 605.06695965 -332.0625 590.50390625 C-331.22285734 587.02840796 -330.38363852 583.5528077 -329.54466248 580.07714844 C-328.99776314 577.81191195 -328.45045635 575.54677379 -327.90272522 573.28173828 C-326.63823214 568.0480971 -325.38115959 562.8129706 -324.14624023 557.57226562 C-323.92468262 556.63347061 -323.703125 555.6946756 -323.47485352 554.72743225 C-323.07036347 553.01001159 -322.66773581 551.29215047 -322.26757812 549.57371521 C-320.89051502 543.72807471 -319.30032366 537.9582162 -317.625 532.19140625 C-317.34333984 531.22130615 -317.06167969 530.25120605 -316.77148438 529.25170898 C-316.54783203 528.48802002 -316.32417969 527.72433105 -316.09375 526.9375 C-314.49549601 521.40344413 -313.05438825 515.83354414 -311.625 510.25390625 C-307.32298786 493.55820361 -302.42190869 477.05910962 -297.11962891 460.65527344 C-295.1064022 454.39064548 -293.26668402 448.09205906 -291.5 441.75390625 C-289.51264004 434.63802423 -287.2725078 427.68221497 -284.74414062 420.74145508 C-282.72631926 415.16133162 -281.02775024 409.52143725 -279.39086914 403.81958008 C-276.75766622 394.68668562 -273.79817863 385.65430089 -270.375 376.78515625 C-268.74962407 372.34662967 -267.31568931 367.83895824 -265.84375 363.34765625 C-264.76273857 360.15735424 -263.61389904 357.00555998 -262.41943359 353.85644531 C-261.40135741 351.13577449 -260.42018955 348.4030209 -259.44140625 345.66796875 C-259.06306641 344.6109375 -258.68472656 343.55390625 -258.29492188 342.46484375 C-257.51789224 340.29071743 -256.74184296 338.11624047 -255.96679688 335.94140625 C-253.96271439 330.34766837 -251.88375871 324.80334928 -249.65063477 319.29736328 C-248.34457425 316.01946492 -247.09751231 312.72048046 -245.85546875 309.41796875 C-229.47471348 265.93706439 -211.13712362 223.23415204 -190.5625 181.56640625 C-190.17803711 180.78765137 -189.79357422 180.00889648 -189.39746094 179.20654297 C-187.77855753 175.93671552 -186.14699728 172.67373098 -184.5 169.41796875 C-183.081201 166.61115049 -181.69144593 163.79144999 -180.3125 160.96484375 C-173.89755253 147.86847573 -166.87960623 135.17850119 -159.5625 122.56640625 C-158.93005371 121.47312012 -158.29760742 120.37983398 -157.64599609 119.25341797 C-145.67539339 98.6188293 -133.01290129 78.56413662 -118.5625 59.56640625 C-118.11310059 58.97279297 -117.66370117 58.37917969 -117.20068359 57.76757812 C-110.75386934 49.28769616 -103.93949771 41.25520356 -96.5625 33.56640625 C-95.96808105 32.93943848 -95.37366211 32.3124707 -94.76123047 31.66650391 C-70.81224915 6.51246584 -35.47652188 -19.04588915 0 0 Z " fill="#E6E6E7" transform="translate(1564.5625,171.43359375)"/>
<path d="M0 0 C0.99 0.33 1.98 0.66 3 1 C25.99647925 62.95136936 6.67213942 148.70322362 -2.25 212.5 C-2.3684729 213.34980438 -2.4869458 214.19960876 -2.60900879 215.07516479 C-3.95018803 224.61036752 -5.50479219 234.07666811 -7.34887695 243.52783203 C-8.17261325 247.92047456 -8.79337569 252.32737368 -9.40234375 256.75390625 C-10.21594679 262.61450599 -11.11015533 268.46308587 -12 274.3125 C-12.1662085 275.42222168 -12.33241699 276.53194336 -12.50366211 277.67529297 C-12.66745361 278.7479541 -12.83124512 279.82061523 -13 280.92578125 C-13.144375 281.87880127 -13.28875 282.83182129 -13.4375 283.8137207 C-13.87993496 286.31989198 -14.38512511 288.77575035 -14.94702148 291.25585938 C-16.05159636 296.14121423 -16.96217273 301.05133077 -17.84765625 305.98046875 C-18.20461576 307.94672081 -18.56171845 309.91294688 -18.91894531 311.87915039 C-19.10509399 312.90670441 -19.29124268 313.93425842 -19.48303223 314.99295044 C-25.3444222 347.30622413 -31.46435249 379.58199723 -38.30175781 411.70458984 C-39.16457544 415.77672701 -40.01585185 419.85123093 -40.8671875 423.92578125 C-44.54596842 441.51657326 -48.28475403 459.09030057 -52.23925781 476.62158203 C-53.05759179 480.25576225 -53.8688426 483.89148564 -54.6796875 487.52734375 C-57.78628945 501.4179821 -61.00491032 515.27435894 -64.37915039 529.10302734 C-66.47204162 537.71534164 -68.44590005 546.34966647 -70.375 555 C-78.61450048 591.82474718 -88.06498666 628.37433801 -97.23999023 664.97436523 C-98.33821474 669.35610416 -99.43449088 673.73831705 -100.52758789 678.12133789 C-100.75625549 679.03793686 -100.9849231 679.95453583 -101.22052002 680.89891052 C-101.62971061 682.53987902 -102.03848818 684.18095061 -102.44671631 685.82215881 C-103.87288303 691.54057741 -105.37818499 697.23472335 -106.91015625 702.92578125 C-108.25796051 707.94366284 -109.56512557 712.97211028 -110.875 718 C-111.12942871 718.97509521 -111.38385742 719.95019043 -111.64599609 720.95483398 C-112.95252296 725.96536862 -114.25277768 730.9774207 -115.54296875 735.9921875 C-117.94003431 745.28494212 -120.40565408 754.53377506 -123.17602539 763.72241211 C-125.02603699 769.92792196 -126.58055987 776.19511659 -128.12524414 782.48242188 C-131.09175462 794.51075824 -134.51293938 806.39952631 -138.05908203 818.26782227 C-139.80565458 824.18526402 -141.34737956 830.14783421 -142.875 836.125 C-145.11858687 844.883395 -147.63580601 853.52180276 -150.3215332 862.15380859 C-152.58135493 869.47481216 -154.60594847 876.84266887 -156.5625 884.25 C-159.01928872 893.54101619 -161.72012265 902.70726732 -164.671875 911.8515625 C-166.90481627 918.77368044 -168.83692803 925.78091216 -170.76953125 932.79150391 C-173.88887727 944.10625502 -176.99940654 955.37205038 -180.8203125 966.47265625 C-182.38368952 971.14725707 -183.75522871 975.8688936 -185.12768555 980.60229492 C-186.50914531 985.35742486 -187.9470998 990.09042822 -189.4375 994.8125 C-191.32535313 1000.79677863 -193.14582425 1006.79874671 -194.9375 1012.8125 C-197.62741431 1021.82933495 -200.44184236 1030.80307457 -203.29296875 1039.77001953 C-204.39294584 1043.23935336 -205.47852343 1046.71313948 -206.5625 1050.1875 C-206.76641357 1050.84057129 -206.97032715 1051.49364258 -207.18041992 1052.16650391 C-208.18026821 1055.36968467 -209.17847418 1058.57337052 -210.17578125 1061.77734375 C-211.44525619 1065.85321853 -212.72094384 1069.92712228 -214 1074 C-214.24975586 1074.79583496 -214.49951172 1075.59166992 -214.75683594 1076.41162109 C-218.64439541 1088.77615388 -222.66395986 1101.0917384 -226.80371094 1113.37426758 C-228.91426803 1119.65598202 -230.92130967 1125.95885047 -232.85473633 1132.29711914 C-235.04936666 1139.39282543 -237.3448595 1146.45628829 -239.63623047 1153.52124023 C-240.50151959 1156.19219063 -241.36208324 1158.86463633 -242.22265625 1161.53710938 C-244.66118073 1169.07633708 -247.09578865 1176.55910417 -250.15039062 1183.8762207 C-251.66957816 1187.673753 -252.81891401 1191.58684148 -254 1195.5 C-255.46458428 1200.35244132 -257.00203677 1205.11080573 -258.921875 1209.8046875 C-261.31229302 1215.65324359 -263.28120035 1221.623807 -265.25 1227.625 C-265.79527344 1229.27435547 -265.79527344 1229.27435547 -266.3515625 1230.95703125 C-267.23715622 1233.63711752 -268.11991207 1236.31810177 -269 1239 C-269.66 1239 -270.32 1239 -271 1239 C-271.23074219 1238.11441406 -271.46148438 1237.22882813 -271.69921875 1236.31640625 C-272.18841797 1234.45822266 -272.18841797 1234.45822266 -272.6875 1232.5625 C-273.00074219 1231.36753906 -273.31398438 1230.17257812 -273.63671875 1228.94140625 C-274.60609207 1225.33618634 -275.66998211 1221.76346732 -276.74749756 1218.18922424 C-279.53162492 1208.90925656 -281.86422611 1199.58728606 -283.9375 1190.125 C-284.10608521 1189.36219727 -284.27467041 1188.59939453 -284.44836426 1187.81347656 C-292.84064467 1149.69354213 -298.46591184 1110.93238723 -301.37768555 1072.01489258 C-301.56017127 1069.59340102 -301.75155452 1067.17272196 -301.94335938 1064.75195312 C-303.9076316 1039.26814743 -304.16604859 1013.77370065 -304.13037109 988.22973633 C-304.12469819 984.14757312 -304.1280583 980.06547546 -304.13380337 975.98331451 C-304.16841778 947.07859363 -303.65048671 918.22200259 -301.6875 889.375 C-301.62375183 888.41652161 -301.56000366 887.45804321 -301.49432373 886.47052002 C-300.21989719 867.44751505 -298.40827044 848.50508271 -296.2857666 829.55975342 C-295.98662238 826.88017002 -295.69159867 824.20015692 -295.39746094 821.52001953 C-288.75569648 761.07342581 -288.75569648 761.07342581 -284.69921875 740.8125 C-283.88797082 736.38915934 -283.31658726 731.95994076 -282.75 727.5 C-279.67774023 703.81324316 -275.26957226 680.20141653 -270.234375 656.859375 C-269.03991485 651.28650788 -267.98005167 645.69168103 -266.92456055 640.09106445 C-263.85809476 623.85067975 -260.30333216 607.75409868 -256.54675293 591.66046143 C-255.35159557 586.53500479 -254.18206939 581.40423792 -253.02734375 576.26953125 C-249.61087966 561.09875194 -246.06720522 545.96592362 -242.3125 530.875 C-242.13204132 530.1454007 -241.95158264 529.41580139 -241.76565552 528.66409302 C-239.63855313 520.08297349 -237.32960481 511.58167179 -234.79875183 503.11070251 C-232.90755398 496.7602185 -231.24255689 490.36294577 -229.625 483.9375 C-226.36881149 471.20240414 -222.76317203 458.59327456 -219 446 C-218.51402156 444.35946424 -218.02833122 442.7188431 -217.54296875 441.078125 C-216.04935304 436.04574931 -214.52939632 431.02160675 -213 426 C-212.54898926 424.51741699 -212.54898926 424.51741699 -212.08886719 423.00488281 C-209.4394581 414.3217441 -206.7337486 405.65687058 -204 397 C-203.76172485 396.24438782 -203.52344971 395.48877563 -203.2779541 394.71026611 C-175.66196465 307.23552328 -142.09953889 221.42676287 -58 64 C-57.5467334 63.32291992 -57.0934668 62.64583984 -56.62646484 61.94824219 C-50.42157962 52.69842728 -43.97870299 43.6829303 -37 35 C-36.57783203 34.47341797 -36.15566406 33.94683594 -35.72070312 33.40429688 C-25.71536419 21.02174959 -14.46154108 7.23077054 0 0 Z " fill="#444445" transform="translate(1534,225)"/>
<path d="M0 0 C20.13 0 40.26 0 61 0 C60.01 4.62 59.02 9.24 58 14 C42.49 14 26.98 14 11 14 C10.67 17.63 10.34 21.26 10 25 C9.34 27.64 8.68 30.28 8 33 C21.86 33 35.72 33 50 33 C49 41 49 41 47 47 C32.81 47 18.62 47 4 47 C3.67 50.3 3.34 53.6 3 57 C2.34 60.3 1.68 63.6 1 67 C16.18 67.33 31.36 67.66 47 68 C45 81 45 81 44 82 C42.09756238 82.09391296 40.19161541 82.11743658 38.28686523 82.11352539 C37.0656749 82.11344986 35.84448456 82.11337433 34.58628845 82.11329651 C33.24372314 82.10818911 31.90115825 82.10297311 30.55859375 82.09765625 C29.19238842 82.09579199 27.82618243 82.09436813 26.4599762 82.09336853 C22.85798305 82.08954394 19.25603 82.07971417 15.65405273 82.06866455 C11.98096255 82.05844916 8.30786591 82.05387064 4.63476562 82.04882812 C-2.57684123 82.03809184 -9.788415 82.02101614 -17 82 C-17.11354051 77.33308089 -16.79148375 73.17015319 -15.79296875 68.61328125 C-15.53580078 67.42669922 -15.27863281 66.24011719 -15.01367188 65.01757812 C-14.74103516 63.79490234 -14.46839844 62.57222656 -14.1875 61.3125 C-13.92646484 60.10916016 -13.66542969 58.90582031 -13.39648438 57.66601562 C-12.17044429 52.06255833 -10.88512309 46.48515689 -9.45703125 40.9296875 C-7.57277074 33.50442886 -6.25044578 25.98352604 -4.89453125 18.44726562 C-4.69214844 17.35736328 -4.48976563 16.26746094 -4.28125 15.14453125 C-4.10658203 14.17878174 -3.93191406 13.21303223 -3.75195312 12.21801758 C-2.78254664 8.06939846 -1.34724866 4.04174598 0 0 Z " fill="#EBEBEB" transform="translate(1326,2021)"/>
<path d="M0 0 C3.82726692 2.3086183 6.30067518 5.05252766 8.9375 8.625 C10.5335919 13.69493897 10.41061818 18.72513562 10 24 C9.67 24.66 9.34 25.32 9 26 C4.38 26 -0.24 26 -5 26 C-5.0825 24.4325 -5.165 22.865 -5.25 21.25 C-5.5948719 17.76679386 -5.77247376 16.31095253 -7.875 13.4375 C-13.00757749 9.96546229 -19.04377493 10.44961465 -25 11 C-28.95289501 12.21096625 -31.90521533 14.04206342 -35 16.75 C-36.53757684 20.2095479 -36.18813682 23.23726363 -36 27 C-31.24450845 28.68437438 -26.49483831 30.17145347 -21.58984375 31.359375 C-20.19862305 31.70355469 -20.19862305 31.70355469 -18.77929688 32.0546875 C-16.88462251 32.51826418 -14.9860548 32.96620794 -13.08398438 33.3984375 C-6.34748262 35.10483043 -1.58481045 37.69013976 3 43 C5.65157133 47.62439245 5.59346525 51.77149601 5 57 C2.82986716 65.62855213 -1.96360261 71.62069056 -8.6875 77.25 C-19.01080228 82.70382007 -28.55070491 83.73560238 -40 83 C-41.44826172 82.91105469 -41.44826172 82.91105469 -42.92578125 82.8203125 C-49.0726377 82.03642101 -52.77487655 79.38587722 -57.1484375 75.06640625 C-60.26866286 71.58412943 -61.84734538 69.05036106 -62.19921875 64.32421875 C-62.27465199 59.94328811 -62.06822154 56.27288617 -61 52 C-56.38 52 -51.76 52 -47 52 C-46.938125 53.711875 -46.87625 55.42375 -46.8125 57.1875 C-46.44494121 61.32653159 -46.20960541 62.72420341 -43.625 66.125 C-38.2191642 69.98631129 -32.40010784 69.43727445 -26 69 C-19.9376803 67.84915605 -15.99154295 65.86469297 -12 61 C-10.544724 58.08944799 -10.54932852 56.21908202 -11 53 C-17.24850165 47.33275432 -26.19419036 46.53692444 -34.16796875 44.73242188 C-40.68481625 43.16594093 -45.37880517 41.97543276 -50 37 C-52.84302069 32.47701254 -52.463737 27.16293861 -52 22 C-50.73570645 13.91951515 -46.03370185 8.30262448 -40 3 C-27.95930324 -4.69266737 -13.27652859 -5.25939634 0 0 Z " fill="#EDEDEE" transform="translate(1459,2022)"/>
<path d="M0 0 C3.27512761 0.14075345 6.37393287 0.54628956 9.59619141 1.15795898 C12.6340562 19.34907471 15.22843734 37.58636656 17.72964478 55.85705566 C18.60033435 62.21056779 19.49713747 68.56017787 20.40869141 74.90795898 C20.53252197 75.77066406 20.65635254 76.63336914 20.78393555 77.5222168 C21.05404939 79.40088938 21.32499706 81.27944207 21.59619141 83.15795898 C16.31619141 83.15795898 11.03619141 83.15795898 5.59619141 83.15795898 C4.12184235 75.32547962 3.46735959 68.11421834 3.59619141 60.15795898 C-5.87162544 59.17227359 -16.24782888 58.10072852 -25.40380859 61.15795898 C-31.93083888 66.80305944 -34.72177912 75.17712676 -37.40380859 83.15795898 C-42.68380859 83.15795898 -47.96380859 83.15795898 -53.40380859 83.15795898 C-52.04983646 79.77302864 -50.82118743 76.95212077 -49.04052734 73.84936523 C-48.57243652 73.03113281 -48.1043457 72.21290039 -47.62207031 71.36987305 C-47.11691895 70.49556641 -46.61176758 69.62125977 -46.09130859 68.72045898 C-45.5629541 67.80103516 -45.03459961 66.88161133 -44.49023438 65.93432617 C-39.04252147 56.480518 -33.48468752 47.09210623 -27.91601562 37.70922852 C-26.08635985 34.62238596 -24.26352661 31.531637 -22.44873047 28.43603516 C-21.63626778 27.05784221 -20.81610625 25.68415484 -19.98779297 24.31542969 C-17.82881963 20.72539774 -15.89023913 17.13152866 -14.12646484 13.32983398 C-7.83484907 0.33745605 -7.83484907 0.33745605 0 0 Z " fill="#EEEEEE" transform="translate(953.40380859375,2019.842041015625)"/>
<path d="M0 0 C3.74814451 -0.22723942 7.17334187 0.39541608 10.78125 1.44140625 C12.1494926 6.62823407 13.19265337 11.67996743 13.89453125 17.0078125 C14.09024982 18.46329764 14.28596925 19.91878266 14.48168945 21.37426758 C14.58148102 22.12946686 14.68127258 22.88466614 14.78408813 23.66275024 C16.68452154 38.03071603 18.81182263 52.343699 21.25708008 66.62915039 C21.45712646 67.82145264 21.65717285 69.01375488 21.86328125 70.2421875 C22.04093018 71.27512939 22.2185791 72.30807129 22.40161133 73.37231445 C22.78125 76.44140625 22.78125 76.44140625 22.78125 83.44140625 C17.50125 83.44140625 12.22125 83.44140625 6.78125 83.44140625 C6.45125 80.94578125 6.12125 78.45015625 5.78125 75.87890625 C5.62462891 74.72152954 5.62462891 74.72152954 5.46484375 73.54077148 C5.38363281 72.90856689 5.30242187 72.2763623 5.21875 71.625 C5.13496094 70.99134521 5.05117187 70.35769043 4.96484375 69.70483398 C4.71515269 66.62652836 4.78125 63.52982188 4.78125 60.44140625 C-4.78875 60.44140625 -14.35875 60.44140625 -24.21875 60.44140625 C-24.87875 62.42140625 -25.53875 64.40140625 -26.21875 66.44140625 C-28.60622767 72.44738432 -31.39924112 79.00376349 -36.21875 83.44140625 C-41.40903578 85.42761206 -46.89670284 84.45167079 -52.21875 83.44140625 C-47.98849426 75.59713987 -43.61940562 67.84277854 -39.15625 60.12890625 C-38.50213135 58.99735107 -37.8480127 57.8657959 -37.17407227 56.69995117 C-27.2503432 39.55068304 -27.2503432 39.55068304 -23.05981445 32.60961914 C-20.15585921 27.79652896 -17.41662012 22.9498502 -14.82421875 17.9609375 C-5.86487154 1.22942905 -5.86487154 1.22942905 0 0 Z " fill="#EEEEEF" transform="translate(1188.21875,2019.55859375)"/>
<path d="M0 0 C19.14 0 38.28 0 58 0 C57 10 57 10 56 14 C41.48 14 26.96 14 12 14 C11.34 18.29 10.68 22.58 10 27 C9.67 28.65 9.34 30.3 9 32 C27.315 32.495 27.315 32.495 46 33 C44 46 44 46 43 47 C40.1883662 47.08861992 37.40141745 47.11522355 34.58984375 47.09765625 C33.74780899 47.0962413 32.90577423 47.09482635 32.03822327 47.09336853 C29.33794665 47.08775263 26.63775172 47.07519748 23.9375 47.0625 C22.11132932 47.05748705 20.28515734 47.05292379 18.45898438 47.04882812 C13.97262458 47.03777804 9.48632616 47.02050279 5 47 C4.8860791 47.80139404 4.7721582 48.60278809 4.65478516 49.4284668 C3.54295462 56.98061723 2.12636548 64.38447026 0.375 71.8125 C0.14554688 72.80314453 -0.08390625 73.79378906 -0.3203125 74.81445312 C-0.87594714 77.21062751 -1.43733819 79.60546597 -2 82 C-6.95 82 -11.9 82 -17 82 C-15.54113881 70.50854259 -13.22624634 59.35447071 -10.6875 48.0625 C-10.2813602 46.23815743 -9.87576481 44.41369358 -9.47070312 42.58911133 C-8.67702643 39.01565055 -7.88112526 35.44269768 -7.08349609 31.87011719 C-5.49315145 24.73620125 -3.95016706 17.59217779 -2.40893555 10.44750977 C-2.23273682 9.63338623 -2.05653809 8.8192627 -1.875 7.98046875 C-1.72804688 7.29879639 -1.58109375 6.61712402 -1.4296875 5.91479492 C-0.98555704 3.93563858 -0.49195359 1.96781436 0 0 Z " fill="#EBEBEB" transform="translate(1089,2021)"/>
<path d="M0 0 C22.44 0 44.88 0 68 0 C66 12 66 12 65 14 C56.42 14 47.84 14 39 14 C38.319375 17.444375 37.63875 20.88875 36.9375 24.4375 C34.53221323 36.53134108 31.9894756 48.59403304 29.41186523 60.65209961 C27.89342 67.75915843 26.40399924 74.86934374 25 82 C20.05 82 15.1 82 10 82 C10.67405519 72.17086685 12.79094565 62.68297364 14.8125 53.0625 C15.15996938 51.39007033 15.50697729 49.71754471 15.85351562 48.04492188 C16.89470742 43.0283371 17.94589632 38.01388577 19 33 C19.18947205 32.09852234 19.37894409 31.19704468 19.57415771 30.26824951 C20.71434497 24.84512656 21.85693023 19.42251752 23 14 C14.75 14 6.5 14 -2 14 C-1 4 -1 4 0 0 Z " fill="#EBEBEB" transform="translate(1493,2021)"/>
<path d="M0 0 C4.95 0 9.9 0 15 0 C10.53881208 22.70946411 5.76197061 45.35210928 1 68 C13.87 68 26.74 68 40 68 C38 79 38 79 37 82 C19.18 82 1.36 82 -17 82 C-15.87457831 69.62036145 -15.87457831 69.62036145 -14.80078125 64.71484375 C-14.56399658 63.61994629 -14.32721191 62.52504883 -14.08325195 61.39697266 C-13.82890381 60.25534668 -13.57455566 59.1137207 -13.3125 57.9375 C-13.04848389 56.72884277 -12.78446777 55.52018555 -12.51245117 54.27490234 C-10.42823283 44.78705191 -8.25620956 35.3193382 -6.05126953 25.85888672 C-4.46852425 19.06798961 -2.95322574 12.27046888 -1.54296875 5.44140625 C-1 3 -1 3 0 0 Z " fill="#EBEBEB" transform="translate(1249,2021)"/>
<path d="M0 0 C4.95 0 9.9 0 15 0 C14.39075824 6.27185987 13.42019426 12.31628116 12.07421875 18.46875 C11.79092461 19.78752136 11.79092461 19.78752136 11.50190735 21.13293457 C11.10305508 22.98555921 10.7020778 24.83772752 10.29907227 26.68945312 C9.69536441 29.46385827 9.09805379 32.23957657 8.50195312 35.015625 C8.10975466 36.83341529 7.71718755 38.65112609 7.32421875 40.46875 C7.15113693 41.27147339 6.97805511 42.07419678 6.79972839 42.90124512 C4.9703799 51.29467122 2.96854533 59.63368234 1 68 C13.87 68 26.74 68 40 68 C39 77 39 77 37 82 C19.18 82 1.36 82 -17 82 C-16.02942498 75.20597484 -14.78410673 68.53805249 -13.4375 61.8125 C-13.17936523 60.52126221 -12.92123047 59.23002441 -12.65527344 57.8996582 C-9.60519108 42.76146707 -6.21407322 27.69796249 -2.81835938 12.63427734 C-1.87045418 8.42469597 -0.93302649 4.21290023 0 0 Z " fill="#EBEBEC" transform="translate(1012,2021)"/>
<path d="M0 0 C2.346409 2.346409 2.70069381 3.82349969 3.5625 7 C3.81128906 7.886875 4.06007813 8.77375 4.31640625 9.6875 C12.12889601 47.54459323 2.81296382 91.86992448 -9 128 C-9.33 128 -9.66 128 -10 128 C-10.69805615 38.74378611 -10.69805615 38.74378611 -1 1 C-0.67 0.67 -0.34 0.34 0 0 Z " fill="#565657" transform="translate(1036,1199)"/>
<path d="M0 0 C0.33 0 0.66 0 1 0 C2.2113078 8.71709003 3.27574313 17.17621971 3 26 C-2.61 26 -8.22 26 -14 26 C-12.56169571 21.68508713 -11.47070466 18.7832455 -9.21484375 15.0390625 C-8.68439453 14.15605469 -8.15394531 13.27304688 -7.60742188 12.36328125 C-6.78081055 11.00783203 -6.78081055 11.00783203 -5.9375 9.625 C-5.38255859 8.69816406 -4.82761719 7.77132812 -4.25585938 6.81640625 C-1.21882593 1.79290878 -1.21882593 1.79290878 0 0 Z " fill="#59595A" transform="translate(1187,2041)"/>
<path d="M0 0 C0.33 0 0.66 0 1 0 C1.99 8.25 2.98 16.5 4 25 C-1.94 25 -7.88 25 -14 25 C-12.54662168 21.36655419 -11.19122358 18.43833154 -9.21484375 15.13671875 C-8.68439453 14.25048828 -8.15394531 13.36425781 -7.60742188 12.45117188 C-6.78081055 11.0831543 -6.78081055 11.0831543 -5.9375 9.6875 C-5.38255859 8.75615234 -4.82761719 7.82480469 -4.25585938 6.86523438 C-3.72669922 5.98544922 -3.19753906 5.10566406 -2.65234375 4.19921875 C-2.16757568 3.39315186 -1.68280762 2.58708496 -1.18334961 1.7565918 C-0.79284424 1.1769165 -0.40233887 0.59724121 0 0 Z " fill="#565657" transform="translate(950,2042)"/>
<path d="M0 0 C0.66 0.33 1.32 0.66 2 1 C-4.21906876 6.15970835 -10.50098984 11.2115426 -16.93017578 16.10668945 C-19.91573326 18.38323232 -22.87206799 20.68869251 -25.796875 23.04296875 C-26.42553467 23.54650879 -27.05419434 24.05004883 -27.7019043 24.56884766 C-28.91607857 25.54356465 -30.12609572 26.52348941 -31.33129883 27.50927734 C-36.40525898 31.56933421 -36.40525898 31.56933421 -40 32 C-37.18036996 27.2665631 -34.50653726 24.58541244 -29.875 21.4375 C-28.63476436 20.5816737 -27.3952173 19.72484893 -26.15625 18.8671875 C-25.49238281 18.41182617 -24.82851563 17.95646484 -24.14453125 17.48730469 C-20.1795573 14.73746164 -16.28177627 11.89410037 -12.375 9.0625 C-11.60526855 8.5068335 -10.83553711 7.95116699 -10.04248047 7.37866211 C-6.67382909 4.94591288 -3.31910651 2.50014805 0 0 Z " fill="#D5D5D6" transform="translate(1006,900)"/>
<path d="M0 0 C0 0.99 0 1.98 0 3 C-1.86896462 4.9776937 -3.71989421 6.76609243 -5.75 8.5625 C-6.28882813 9.05685547 -6.82765625 9.55121094 -7.3828125 10.06054688 C-10.08968312 12.5000315 -12.6107674 14.60975653 -16 16 C-4.57142857 2.28571429 -4.57142857 2.28571429 0 0 Z " fill="#5E5E5F" transform="translate(788,1088)"/>
<path d="M0 0 C0.66 0.33 1.32 0.66 2 1 C0.27427512 2.44163007 -1.4557347 3.87813165 -3.1875 5.3125 C-4.63189453 6.51326172 -4.63189453 6.51326172 -6.10546875 7.73828125 C-8.65588917 9.73111988 -11.18642401 11.41061246 -14 13 C-14 12.01 -14 11.02 -14 10 C-11.70056957 8.13757867 -9.44213863 6.46495095 -7 4.8125 C-6.33226562 4.34908203 -5.66453125 3.88566406 -4.9765625 3.40820312 C-3.32390133 2.26314503 -1.66272331 1.13039735 0 0 Z " fill="#C4C4C5" transform="translate(1006,900)"/>
</svg>
